
<svg xmlns="http://www.w3.org/2000/svg" viewBox="0 0 1024 1024">
  <style>
    .fg { fill: #000000; }
  </style>
  
  <g transform="translate(0,1024) scale(0.1,-0.1)" class="fg" stroke="none">
    
    <!-- ICON GROUP: estrela + órbita + foguete -->
    <g id="icon">
      <!-- Estrela 4 pontas -->
      <path d="M6486 8495 c-15 -128 -77 -439 -95 -473 -55 -107 -127 -142 -382 -187 -219 -39 -238 -44 -218 -55 8 -4 101 -27 206 -49 218 -47 264 -64 323 -117 73 -66 84 -99 135 -394 19 -112 37 -205 39 -207 3 -3 7 10 10 28 82 480 89 502 168 576 58 52 114 72 333 118 99 20 187 41 195 45 17 10 32 6 -210 51 -373 68 -384 82 -462 571 -12 82 -26 148 -29 148 -3 0 -9 -25 -13 -55z"/>
      
      <!-- Órbita (arco) -->
      <path d="M4780 7934 c-537 -71 -1006 -361 -1302 -803 -355 -531 -424 -1212 -182 -1799 104 -254 300 -522 525 -720 268 -236 562 -379 932 -454 97 -20 143 -23 347 -23 209 0 247 3 344 23 309 67 543 169 773 338 445 328 724 821 783 1384 31 298 -44 691 -186 971 -27 55 -46 68 -70 48 -12 -10 -14 -23 -10 -53 4 -22 11 -45 15 -51 18 -22 81 -227 101 -331 41 -206 42 -511 1 -711 -46 -224 -153 -479 -280 -668 -182 -270 -448 -508 -720 -645 -268 -134 -493 -185 -816 -185 -219 0 -280 7 -457 51 -245 61 -473 175 -658 329 -468 390 -704 990 -625 1590 54 410 214 746 495 1038 169 177 312 283 516 385 291 146 672 218 1012 193 74 -5 140 -7 148 -4 18 7 18 37 0 52 -65 54 -434 78 -686 45z"/>
      
      <!-- Foguete - ponta -->
      <path d="M5732 7183 c-60 -33 -482 -365 -476 -375 13 -21 520 -350 542 -351 26 -2 22 -13 133 377 67 235 62 273 -39 337 -54 34 -110 38 -160 12z"/>
      
      <!-- Foguete - corpo -->
      <path d="M5020 6612 c-69 -54 -197 -154 -285 -223 -88 -69 -275 -215 -415 -325 -140 -110 -281 -220 -313 -244 -32 -25 -60 -55 -63 -67 -14 -54 -1 -66 233 -220 126 -82 255 -166 288 -187 33 -20 150 -96 260 -168 529 -348 515 -339 564 -336 42 3 48 6 64 39 9 20 78 247 152 505 73 258 163 568 199 689 61 207 64 221 48 237 -22 21 -590 398 -600 398 -4 0 -64 -44 -132 -98z"/>
      
      <!-- Foguete - exaustão -->
      <path d="M4214 5259 c-10 -16 62 -114 122 -165 134 -115 372 -218 399 -173 14 21 -23 49 -344 256 -143 93 -164 103 -177 82z"/>
    </g>
    
    <!-- TEXT GROUP: agena -->
    <g id="text-agena">
      <!-- g -->
      <path d="M3743 3370 c-281 -51 -457 -287 -439 -590 9 -166 60 -286 157 -373 104 -95 220 -137 374 -137 131 0 232 33 311 102 l37 32 -5 -94 c-7 -148 -56 -233 -166 -287 -53 -26 -66 -28 -177 -28 -115 0 -122 2 -181 32 -34 18 -71 44 -82 58 -19 24 -25 25 -112 25 l-92 0 7 -27 c10 -45 67 -133 105 -163 90 -71 196 -103 340 -103 125 -1 204 15 284 55 127 64 210 176 242 327 23 114 16 855 -9 921 -42 109 -135 190 -267 231 -75 23 -246 33 -327 19z m300 -203 c70 -35 105 -79 123 -155 19 -78 18 -294 -1 -358 -34 -114 -152 -194 -299 -202 -157 -8 -262 48 -326 172 -34 68 -35 71 -35 190 0 109 3 126 27 177 29 64 84 129 135 160 61 38 112 49 218 46 87 -2 108 -6 158 -30z"/>
      
      <!-- a (primeiro) -->
      <path d="M2418 3355 c-130 -33 -224 -110 -253 -208 -23 -79 -25 -77 68 -77 l82 1 26 38 c15 20 43 45 63 55 134 64 373 31 427 -58 20 -34 25 -86 9 -115 -19 -37 -100 -60 -266 -76 -234 -23 -312 -47 -393 -121 -76 -68 -108 -201 -77 -317 46 -169 188 -247 453 -247 131 0 205 11 267 41 48 23 50 23 43 5 -5 -11 8 -15 61 -18 37 -2 79 -2 95 0 l27 3 0 372 c0 382 -7 472 -39 536 -39 75 -125 139 -231 172 -87 27 -282 35 -362 14z m440 -704 c-3 -154 -4 -160 -28 -186 -51 -55 -101 -69 -250 -70 -107 0 -145 4 -182 18 -97 38 -141 134 -99 220 37 76 111 106 311 127 96 10 217 34 229 45 18 19 22 -13 19 -154z"/>
      
      <!-- e -->
      <path d="M4974 3356 c-232 -56 -384 -274 -384 -551 0 -237 109 -426 295 -514 93 -44 150 -54 289 -49 115 4 126 6 196 39 98 47 180 122 220 202 l31 62 -92 3 -91 3 -52 -49 c-64 -61 -81 -70 -164 -87 -78 -17 -172 -7 -244 24 -90 38 -162 141 -175 250 l-6 51 421 0 422 0 6 26 c9 35 -4 181 -22 251 -58 223 -246 354 -504 352 -52 0 -118 -6 -146 -13z m301 -180 c84 -35 155 -133 171 -235 l7 -41 -327 0 c-373 0 -344 -9 -304 97 31 82 113 163 188 186 69 21 207 17 265 -7z"/>
      
      <!-- n -->
      <path d="M6204 3356 c-117 -27 -227 -102 -279 -191 -49 -82 -55 -140 -55 -537 l0 -368 95 0 95 0 0 354 c0 398 4 426 68 492 61 63 110 79 242 79 106 0 120 -2 173 -28 70 -35 119 -96 139 -170 10 -38 13 -139 13 -389 l0 -338 93 0 92 0 0 363 c0 378 -4 425 -47 514 -42 89 -149 170 -273 208 -76 23 -277 29 -356 11z"/>
      
      <!-- a (segundo) -->
      <path d="M7480 3360 c-145 -23 -239 -88 -277 -191 -41 -109 -47 -99 54 -99 88 0 89 0 106 30 48 81 201 120 349 89 116 -25 168 -71 168 -150 0 -82 -42 -102 -270 -125 -254 -25 -350 -58 -419 -141 -75 -91 -89 -250 -31 -364 25 -48 92 -106 155 -134 84 -37 160 -48 317 -43 125 4 151 7 206 30 47 19 62 22 62 12 0 -11 20 -14 91 -14 l90 0 -3 423 c-3 419 -3 422 -27 474 -41 91 -127 156 -251 188 -75 19 -243 27 -320 15z m418 -702 c-3 -139 -5 -156 -25 -184 -66 -92 -323 -120 -463 -51 -61 30 -90 76 -90 141 0 83 47 139 140 167 19 5 94 16 165 25 146 16 223 30 245 44 8 5 19 10 23 10 5 0 7 -69 5 -152z"/>
    </g>
    
  </g>
</svg>
